<?xml version="1.0" encoding="utf-8"?>
<!-- Generator: Adobe Illustrator 22.1.0, SVG Export Plug-In . SVG Version: 6.00 Build 0)  -->
<svg version="1.1" id="Layer_1" xmlns="http://www.w3.org/2000/svg" xmlns:xlink="http://www.w3.org/1999/xlink" x="0px" y="0px"
	 viewBox="0 0 300 300" style="enable-background:new 0 0 300 300;" xml:space="preserve">
<style type="text/css">
	.st0{fill:#3F8EE8;}
	.st1{fill:#9CE874;}
	.st2{fill:none;stroke:#FFFFFF;stroke-miterlimit:10;}
	.st3{fill:#FFFFFF;}
</style>
<g>
	<path class="st0" d="M88.57,115.01c1.27,1.47,2.43,3.08,3.45,4.83l22.92,43.31c5.31,9.11,14.32,14.59,23.99,14.59h24.29
		c10.45,0,20.08-6.41,25.13-16.73l17.16-39.04c1.26-2.58,2.81-4.92,4.59-6.97"/>
	<g>
		<path class="st1" d="M149.34,194.25h43.9c13.85,0,27.14-6.12,37.04-17.04c6.69-7.38,13.69-15.37,16.98-19.96
			c8.46-11.81,29.24-51,29.24-51l-28.8-0.5h-11.42c-10.45,0-20.08,6.41-25.13,16.73l-20.83,42.54
			c-5.05,10.32-14.68,16.73-25.13,16.73h-15.26L149.34,194.25z"/>
		<path class="st1" d="M150.66,194.25h-43.9c-13.85,0-27.14-6.12-37.04-17.04c-6.69-7.38-13.69-15.37-16.98-19.96
			c-8.46-11.81-29.24-51-29.24-51l28.8-0.5h11.42c10.45,0,20.08,6.41,25.13,16.73l20.83,42.54c5.05,10.32,14.68,16.73,25.13,16.73
			h15.26L150.66,194.25z"/>
	</g>
	<g>
		<g>
			<line class="st2" x1="149.5" y1="126.93" x2="149.5" y2="160.57"/>
			<g>
				<polygon class="st3" points="144.51,128.39 149.5,119.75 154.49,128.39 				"/>
			</g>
			<g>
				<polygon class="st3" points="144.51,159.11 149.5,167.75 154.49,159.11 				"/>
			</g>
		</g>
	</g>
</g>
</svg>
