<?xml version="1.0" encoding="utf-8"?>
<!-- Generator: Adobe Illustrator 22.1.0, SVG Export Plug-In . SVG Version: 6.00 Build 0)  -->
<svg version="1.1" id="Layer_1" xmlns="http://www.w3.org/2000/svg" xmlns:xlink="http://www.w3.org/1999/xlink" x="0px" y="0px"
	 viewBox="0 0 405 315" style="enable-background:new 0 0 405 315;" xml:space="preserve">
<style type="text/css">
	.st0{fill:none;}
	.st1{fill:none;stroke:#3F8EE8;stroke-width:1.2;}
	.st2{fill:#FFFFFF;}
	.st3{fill:#3F8EE8;}
	.st4{fill:url(#SVGID_1_);}
</style>
<pattern  x="-488" y="-221" width="72" height="72" patternUnits="userSpaceOnUse" id="_x36__lpi_10_x25__3" viewBox="72.25 -72 72 72" style="overflow:visible;">
	<g>
		<rect x="72.25" y="-72" class="st0" width="72" height="72"/>
		<g>
			<line class="st1" x1="144" y1="-6" x2="216.5" y2="-6"/>
			<line class="st1" x1="144" y1="-30" x2="216.5" y2="-30"/>
			<line class="st1" x1="144" y1="-54" x2="216.5" y2="-54"/>
			<line class="st1" x1="144" y1="-18" x2="216.5" y2="-18"/>
			<line class="st1" x1="144" y1="-42" x2="216.5" y2="-42"/>
			<line class="st1" x1="144" y1="-66" x2="216.5" y2="-66"/>
		</g>
		<g>
			<line class="st1" x1="72" y1="-6" x2="144.5" y2="-6"/>
			<line class="st1" x1="72" y1="-30" x2="144.5" y2="-30"/>
			<line class="st1" x1="72" y1="-54" x2="144.5" y2="-54"/>
			<line class="st1" x1="72" y1="-18" x2="144.5" y2="-18"/>
			<line class="st1" x1="72" y1="-42" x2="144.5" y2="-42"/>
			<line class="st1" x1="72" y1="-66" x2="144.5" y2="-66"/>
		</g>
		<g>
			<line class="st1" x1="0" y1="-6" x2="72.5" y2="-6"/>
			<line class="st1" x1="0" y1="-30" x2="72.5" y2="-30"/>
			<line class="st1" x1="0" y1="-54" x2="72.5" y2="-54"/>
			<line class="st1" x1="0" y1="-18" x2="72.5" y2="-18"/>
			<line class="st1" x1="0" y1="-42" x2="72.5" y2="-42"/>
			<line class="st1" x1="0" y1="-66" x2="72.5" y2="-66"/>
		</g>
	</g>
</pattern>
<g>
	<g>
		<path class="st2" d="M38.86,101.56c-1.48-9.87-0.93-19.87,1.46-29.51c5.08-20.51,13.8-40.25,32.99-49.27
			c16.77-7.88,38.91-4.25,52.29,8.56c11.45,10.96,17.67,28.17,33.05,33.06c13.42,4.27,27.24-3.02,40.76-6.53
			c27.99-7.26,49.23-10.71,76.35-0.39c18.79,7.15,12.64,23.53,10.93,28.82c-2.84,8.8,3.71,18.27,11.7,23.74
			c7.99,5.46,17.66,8.1,26.45,12.28c26.45,12.57,43.12,37.88,58.39,61.92c4.62,7.28,9.38,16.06,5.82,23.71
			c-4.53,9.72-18.4,10.32-29.46,12.31c-18,3.23-33.42,13.54-48.22,23.6c-20.1,13.66-40.2,27.31-60.3,40.97
			c-11.96,8.13-28.36,16.35-40.5,8.04c-11.34-7.75-9.98-24.34-18.21-35.05c-9.86-12.82-29.39-13.21-45.98-12.95
			s-36.59-2-44.18-16.13c-1.45-2.7-2.37-5.76-4.59-7.94c-2.05-2.01-4.94-3.01-7.71-3.93c-17.63-5.89-35.25-11.78-52.88-17.67
			c-5.25-1.76-10.66-3.6-14.79-7.16c-9.72-8.39-8.95-23.31-3.59-34.48s14.3-20.51,19.34-31.82
			C40.73,119.55,40.04,109.43,38.86,101.56z"/>
		<g>
			<path class="st3" d="M39.58,101.37C35.07,68.5,52.54,20.43,91.35,19.41c18.1-0.47,32.04,8.74,42.48,22.81
				c8.18,11.02,16.53,23.26,31.57,24.18c8.86,0.54,17.44-2.58,25.74-5.25c9.14-2.95,18.54-5.27,27.98-7.04
				c19.2-3.61,39.59-3.38,57.74,4.67c6.95,3.09,11.56,8.65,11.42,16.47c-0.08,4.37-1.82,8.09-2.67,12.26
				c-3.06,14.89,13.36,24.78,24.72,29.56c8.91,3.74,17.72,7.12,25.74,12.6c7.25,4.96,13.72,10.97,19.57,17.5
				c6.1,6.79,11.54,14.15,16.67,21.69c4.8,7.05,9.99,14.25,13.84,21.87c2.77,5.47,5.03,12.17,1.69,17.95
				c-2.17,3.75-6.06,5.88-10.04,7.24c-7.29,2.49-15.13,2.72-22.59,4.53c-17.62,4.29-32.72,14.97-47.49,25.01
				c-17.38,11.81-34.76,23.62-52.15,35.44c-13.88,9.43-38.54,25.14-50.67,4.66c-6.96-11.76-6.32-26.39-18.92-34.5
				c-12.13-7.8-27.86-6.91-41.64-6.88c-15.21,0.03-34.55-1.86-42.18-17.15c-1.43-2.87-2.55-5.71-5.19-7.7
				c-3.02-2.29-7.13-3.23-10.66-4.4c-10.07-3.37-20.14-6.73-30.21-10.1c-9.77-3.26-21.38-5.57-30.18-11.03
				c-8.46-5.25-11.38-14.53-10.14-24.06c1.21-9.3,6.18-17.2,11.36-24.81c4.53-6.66,10.19-13.59,12.43-21.45
				C41.58,116.39,40.61,108.51,39.58,101.37c-0.14-0.95-1.58-0.55-1.45,0.4c1.58,11.01,1.45,20.54-4.34,30.34
				c-5.03,8.51-11.56,16.13-15.82,25.1c-5.89,12.4-6.21,29.19,6.48,37.45c8.03,5.23,18.47,7.34,27.46,10.34
				c11.02,3.68,22.03,7.36,33.05,11.04c5.85,1.96,11.38,3.16,14.58,8.94c1.85,3.34,3.15,6.62,5.84,9.42
				c4.59,4.79,10.95,7.51,17.3,9.07c16.12,3.96,32.83,0.42,49.01,3.72c8.53,1.74,16.73,5.58,21.5,13.18
				c4.2,6.68,5.38,14.7,8.42,21.89c2.53,5.97,6.56,11.13,12.79,13.49c7.45,2.82,15.7,0.86,22.74-2.18
				c9.26-3.99,17.41-10.18,25.7-15.81c9.23-6.28,18.47-12.55,27.7-18.83c17.46-11.86,34.85-25.84,54.61-33.68
				c8.23-3.27,16.64-4.39,25.27-5.99c6.13-1.14,13.08-2.79,17.28-7.81c4.9-5.87,3.52-13.47,0.52-19.88
				c-3.85-8.24-9.52-15.95-14.63-23.45c-9.74-14.32-20.72-28.17-34.87-38.38c-7.19-5.19-15.03-8.86-23.22-12.15
				c-10.19-4.1-21.5-8.75-26.74-19.17c-5.3-10.53,4.6-21.17-0.89-31.95c-3.1-6.09-9.37-8.86-15.52-10.97
				c-8.75-3-17.9-4.81-27.15-5.15c-19.64-0.71-39.37,4.53-57.91,10.48c-10.33,3.32-21.72,6.51-32.05,1.43
				c-7.81-3.84-13.09-11.15-18.1-17.98c-9.44-12.88-19.84-22.98-36.25-25.66C86,16.15,70.89,20.53,60,31.11
				C48.52,42.26,42.58,58.35,39.17,73.67c-2.06,9.27-2.32,18.7-1.04,28.1C38.27,102.72,39.71,102.31,39.58,101.37z"/>
		</g>
	</g>
	<g>
		
			<pattern  id="SVGID_1_" xlink:href="#_x36__lpi_10_x25__3" patternTransform="matrix(0.6298 -0.4941 0.5331 0.6056 1108.4305 -6359.2266)">
		</pattern>
		<path class="st4" d="M38.86,101.56c-1.48-9.87-0.93-19.87,1.46-29.51c5.08-20.51,13.8-40.25,32.99-49.27
			c16.77-7.88,38.91-4.25,52.29,8.56c11.45,10.96,17.67,28.17,33.05,33.06c13.42,4.27,27.24-3.02,40.76-6.53
			c27.99-7.26,49.23-10.71,76.35-0.39c18.79,7.15,12.64,23.53,10.93,28.82c-2.84,8.8,3.71,18.27,11.7,23.74
			c7.99,5.46,17.66,8.1,26.45,12.28c26.45,12.57,43.12,37.88,58.39,61.92c4.62,7.28,9.38,16.06,5.82,23.71
			c-4.53,9.72-18.4,10.32-29.46,12.31c-18,3.23-33.42,13.54-48.22,23.6c-20.1,13.66-40.2,27.31-60.3,40.97
			c-11.96,8.13-28.36,16.35-40.5,8.04c-11.34-7.75-9.98-24.34-18.21-35.05c-9.86-12.82-29.39-13.21-45.98-12.95
			s-36.59-2-44.18-16.13c-1.45-2.7-2.37-5.76-4.59-7.94c-2.05-2.01-4.94-3.01-7.71-3.93c-17.63-5.89-35.25-11.78-52.88-17.67
			c-5.25-1.76-10.66-3.6-14.79-7.16c-9.72-8.39-8.95-23.31-3.59-34.48s14.3-20.51,19.34-31.82
			C40.73,119.55,40.04,109.43,38.86,101.56z"/>
		<g>
			<path class="st3" d="M39.58,101.37C35.07,68.5,52.54,20.43,91.35,19.41c18.1-0.47,32.04,8.74,42.48,22.81
				c8.18,11.02,16.53,23.26,31.57,24.18c8.86,0.54,17.44-2.58,25.74-5.25c9.14-2.95,18.54-5.27,27.98-7.04
				c19.2-3.61,39.59-3.38,57.74,4.67c6.95,3.09,11.56,8.65,11.42,16.47c-0.08,4.37-1.82,8.09-2.67,12.26
				c-3.06,14.89,13.36,24.78,24.72,29.56c8.91,3.74,17.72,7.12,25.74,12.6c7.25,4.96,13.72,10.97,19.57,17.5
				c6.1,6.79,11.54,14.15,16.67,21.69c4.8,7.05,9.99,14.25,13.84,21.87c2.77,5.47,5.03,12.17,1.69,17.95
				c-2.17,3.75-6.06,5.88-10.04,7.24c-7.29,2.49-15.13,2.72-22.59,4.53c-17.62,4.29-32.72,14.97-47.49,25.01
				c-17.38,11.81-34.76,23.62-52.15,35.44c-13.88,9.43-38.54,25.14-50.67,4.66c-6.96-11.76-6.32-26.39-18.92-34.5
				c-12.13-7.8-27.86-6.91-41.64-6.88c-15.21,0.03-34.55-1.86-42.18-17.15c-1.43-2.87-2.55-5.71-5.19-7.7
				c-3.02-2.29-7.13-3.23-10.66-4.4c-10.07-3.37-20.14-6.73-30.21-10.1c-9.77-3.26-21.38-5.57-30.18-11.03
				c-8.46-5.25-11.38-14.53-10.14-24.06c1.21-9.3,6.18-17.2,11.36-24.81c4.53-6.66,10.19-13.59,12.43-21.45
				C41.58,116.39,40.61,108.51,39.58,101.37c-0.14-0.95-1.58-0.55-1.45,0.4c1.58,11.01,1.45,20.54-4.34,30.34
				c-5.03,8.51-11.56,16.13-15.82,25.1c-5.89,12.4-6.21,29.19,6.48,37.45c8.03,5.23,18.47,7.34,27.46,10.34
				c11.02,3.68,22.03,7.36,33.05,11.04c5.85,1.96,11.38,3.16,14.58,8.94c1.85,3.34,3.15,6.62,5.84,9.42
				c4.59,4.79,10.95,7.51,17.3,9.07c16.12,3.96,32.83,0.42,49.01,3.72c8.53,1.74,16.73,5.58,21.5,13.18
				c4.2,6.68,5.38,14.7,8.42,21.89c2.53,5.97,6.56,11.13,12.79,13.49c7.45,2.82,15.7,0.86,22.74-2.18
				c9.26-3.99,17.41-10.18,25.7-15.81c9.23-6.28,18.47-12.55,27.7-18.83c17.46-11.86,34.85-25.84,54.61-33.68
				c8.23-3.27,16.64-4.39,25.27-5.99c6.13-1.14,13.08-2.79,17.28-7.81c4.9-5.87,3.52-13.47,0.52-19.88
				c-3.85-8.24-9.52-15.95-14.63-23.45c-9.74-14.32-20.72-28.17-34.87-38.38c-7.19-5.19-15.03-8.86-23.22-12.15
				c-10.19-4.1-21.5-8.75-26.74-19.17c-5.3-10.53,4.6-21.17-0.89-31.95c-3.1-6.09-9.37-8.86-15.52-10.97
				c-8.75-3-17.9-4.81-27.15-5.15c-19.64-0.71-39.37,4.53-57.91,10.48c-10.33,3.32-21.72,6.51-32.05,1.43
				c-7.81-3.84-13.09-11.15-18.1-17.98c-9.44-12.88-19.84-22.98-36.25-25.66C86,16.15,70.89,20.53,60,31.11
				C48.52,42.26,42.58,58.35,39.17,73.67c-2.06,9.27-2.32,18.7-1.04,28.1C38.27,102.72,39.71,102.31,39.58,101.37z"/>
		</g>
	</g>
	<g>
		<path class="st3" d="M44.93,126.74c-2.78-9.16-9.57-20.55-8.83-30.1c1.57-20.32,12.35-38.69,28.29-50.24
			c13.93-10.09,34.37-10.07,48.27,0.05c11.9,8.67,20.01,24.09,34.55,26.36c12.69,1.99,24.06-7.09,35.7-12.53
			c24.11-11.25,42.71-17.82,68.6-12.19c17.95,3.9,14.81,20.45,14.05,25.75c-1.27,8.82,6.01,16.83,13.99,20.79
			c7.98,3.97,17.06,4.98,25.58,7.6c25.63,7.87,44.32,29.39,61.56,49.92c5.22,6.21,10.79,13.84,8.7,21.68
			c-2.65,9.96-15.04,12.68-24.7,16.28c-15.71,5.86-28.07,18.07-39.92,29.94c-16.08,16.12-32.16,32.23-48.23,48.35
			c-9.57,9.59-23.11,19.96-35.25,13.93c-11.33-5.63-12.53-21.64-21.5-30.56c-10.74-10.68-28.36-8.03-43.25-5.22
			s-33.2,3.76-42.09-8.51c-1.7-2.35-2.97-5.12-5.29-6.85c-2.14-1.6-4.88-2.1-7.51-2.55c-16.71-2.88-33.42-5.76-50.14-8.64
			c-4.98-0.86-10.11-1.78-14.35-4.53c-9.97-6.49-11.45-20.81-8.27-32.27c3.19-11.46,9.86-21.75,12.74-33.29
			C49.23,143.57,47.14,134.04,44.93,126.74z"/>
	</g>
</g>
</svg>
