<?xml version="1.0" encoding="utf-8"?>
<!-- Generator: Adobe Illustrator 22.1.0, SVG Export Plug-In . SVG Version: 6.00 Build 0)  -->
<svg version="1.1" id="Layer_1" xmlns="http://www.w3.org/2000/svg" xmlns:xlink="http://www.w3.org/1999/xlink" x="0px" y="0px"
	 viewBox="0 0 1200 400" style="enable-background:new 0 0 1200 400;" xml:space="preserve">
<style type="text/css">
	.st0{fill:url(#SVGID_1_);}
	.st1{display:none;}
	.st2{display:inline;}
	.st3{fill:#ECEFF0;}
	.st4{fill:#149F84;}
	.st5{fill:none;}
	.st6{opacity:0.25;}
	.st7{fill:#F5EA14;}
	.st8{fill:#EC2024;}
	.st9{fill:none;stroke:#149F84;stroke-miterlimit:10;}
</style>
<linearGradient id="SVGID_1_" gradientUnits="userSpaceOnUse" x1="-1592.75" y1="2" x2="-1592.75" y2="402" gradientTransform="matrix(-1 0 0 -1 -993 402)">
	<stop  offset="0" style="stop-color:#0071BC"/>
	<stop  offset="1" style="stop-color:#2E3192"/>
</linearGradient>
<polygon class="st0" points="-0.25,196.23 1199.75,400 1199.75,0 -0.25,0 "/>
<g id="Layer_2_1_" class="st1">
	<g class="st2">
		<g id="Grid_Col-lg">
			<g>
				<rect id="col_1_" x="-969.5" y="627.11" class="st3" width="65" height="28.71"/>
				<rect id="padding_1_" x="-984.5" y="627.11" class="st4" width="15" height="28.71"/>
				<rect id="padding_2_" x="-999.5" y="627.11" class="st4" width="15" height="28.71"/>
				<rect id="col_2_" x="-874.5" y="627.11" class="st3" width="65" height="28.71"/>
				<rect id="padding_4_" x="-889.5" y="627.11" class="st4" width="15" height="28.71"/>
				<rect id="padding_3_" x="-904.5" y="627.11" class="st4" width="15" height="28.71"/>
				<rect id="col_4_" x="-779.5" y="627.11" class="st3" width="65" height="28.71"/>
				<rect id="padding_8_" x="-794.5" y="627.11" class="st4" width="15" height="28.71"/>
				<rect id="padding_7_" x="-809.5" y="627.11" class="st4" width="15" height="28.71"/>
				<rect id="col_3_" x="-684.5" y="627.11" class="st3" width="65" height="28.71"/>
				<rect id="padding_6_" x="-699.5" y="627.11" class="st4" width="15" height="28.71"/>
				<rect id="padding_5_" x="-714.5" y="627.11" class="st4" width="15" height="28.71"/>
				<rect id="col_6_" x="-589.5" y="627.11" class="st3" width="65" height="28.71"/>
				<rect id="padding_12_" x="-604.5" y="627.11" class="st4" width="15" height="28.71"/>
				<rect id="padding_11_" x="-619.5" y="627.11" class="st4" width="15" height="28.71"/>
				<rect id="col_5_" x="-494.5" y="627.11" class="st3" width="65" height="28.71"/>
				<rect id="padding_10_" x="-509.5" y="627.11" class="st4" width="15" height="28.71"/>
				<rect id="padding_9_" x="-524.5" y="627.11" class="st4" width="15" height="28.71"/>
				<rect id="col_8_" x="-399.5" y="627.11" class="st3" width="65" height="28.71"/>
				<rect id="padding_16_" x="-414.5" y="627.11" class="st4" width="15" height="28.71"/>
				<rect id="padding_15_" x="-429.5" y="627.11" class="st4" width="15" height="28.71"/>
				<rect id="col_7_" x="-304.5" y="627.11" class="st3" width="65" height="28.71"/>
				<rect id="padding_14_" x="-319.5" y="627.11" class="st4" width="15" height="28.71"/>
				<rect id="padding_13_" x="-334.5" y="627.11" class="st4" width="15" height="28.71"/>
				<rect id="col_10_" x="-209.5" y="627.11" class="st3" width="65" height="28.71"/>
				<rect id="padding_20_" x="-224.5" y="627.11" class="st4" width="15" height="28.71"/>
				<rect id="padding_19_" x="-239.5" y="627.11" class="st4" width="15" height="28.71"/>
				<rect id="col_9_" x="-114.5" y="627.11" class="st3" width="65" height="28.71"/>
				<rect id="padding_18_" x="-129.5" y="627.11" class="st4" width="15" height="28.71"/>
				<rect id="padding_17_" x="-144.5" y="627.11" class="st4" width="15" height="28.71"/>
				<rect id="col_12_" x="-19.5" y="627.11" class="st3" width="65" height="28.71"/>
				<rect id="padding_24_" x="-34.5" y="627.11" class="st4" width="15" height="28.71"/>
				<rect id="padding_23_" x="-49.5" y="627.11" class="st4" width="15" height="28.71"/>
				<rect id="col_11_" x="75.5" y="627.11" class="st3" width="65" height="28.71"/>
				<rect id="padding_22_" x="60.5" y="627.11" class="st4" width="15" height="28.71"/>
				<rect id="padding_21_" x="45.5" y="627.11" class="st4" width="15" height="28.71"/>
				<rect id="padding_26_" x="155.5" y="627.11" class="st4" width="15" height="28.71"/>
				<rect id="padding_25_" x="140.5" y="627.11" class="st4" width="15" height="28.71"/>
				<text transform="matrix(1 0 0 1 -969.5002 617.2844)" style="fill:#7F8B8C; font-family:'Helvetica'; font-size:18px;">.col- lg-1   </text>
				<text transform="matrix(1 0 0 1 -874.5 617.2844)" style="fill:#7F8B8C; font-family:'Helvetica'; font-size:18px;">.col- lg-1   </text>
				<text transform="matrix(1 0 0 1 -779.4998 617.2844)" style="fill:#7F8B8C; font-family:'Helvetica'; font-size:18px;">.col- lg-1   </text>
				<text transform="matrix(1 0 0 1 -684.5649 617.2844)" style="fill:#7F8B8C; font-family:'Helvetica'; font-size:18px;">.col- lg-1   </text>
				<text transform="matrix(1 0 0 1 -589.5 617.2844)" style="fill:#7F8B8C; font-family:'Helvetica'; font-size:18px;">.col- lg-1   </text>
				<text transform="matrix(1 0 0 1 -498.5005 617.2844)" style="fill:#7F8B8C; font-family:'Helvetica'; font-size:18px;">.col- lg-1   </text>
				<text transform="matrix(1 0 0 1 -399.4995 617.2844)" style="fill:#7F8B8C; font-family:'Helvetica'; font-size:18px;">.col- lg-1   </text>
				<text transform="matrix(1 0 0 1 -304.4985 617.2844)" style="fill:#7F8B8C; font-family:'Helvetica'; font-size:18px;">.col- lg-1   </text>
				<text transform="matrix(1 0 0 1 -209.5 617.2844)" style="fill:#7F8B8C; font-family:'Helvetica'; font-size:18px;">.col- lg-1   </text>
				<text transform="matrix(1 0 0 1 -114.5005 617.2844)" style="fill:#7F8B8C; font-family:'Helvetica'; font-size:18px;">.col- lg-1   </text>
				<text transform="matrix(1 0 0 1 -19.4995 617.2844)" style="fill:#7F8B8C; font-family:'Helvetica'; font-size:18px;">.col- lg-1   </text>
				<rect x="72" y="601.83" class="st5" width="84.02" height="24.11"/>
				<text transform="matrix(1 0 0 1 71.9995 617.2844)" style="fill:#7F8B8C; font-family:'Helvetica'; font-size:18px;">.col- lg-1   </text>
			</g>
			<g>
				<rect id="col_24_" x="-969.5" y="707.02" class="st3" width="159.97" height="28.71"/>
				<rect id="padding_236_" x="-984.5" y="707.02" class="st4" width="15" height="28.71"/>
				<rect id="padding_235_" x="-999.5" y="707.02" class="st4" width="15" height="28.71"/>
				<rect id="col_22_" x="-779.5" y="707.02" class="st3" width="160" height="28.71"/>
				<rect id="padding_48_" x="-794.5" y="707.02" class="st4" width="15" height="28.71"/>
				<rect id="padding_47_" x="-809.5" y="707.02" class="st4" width="15" height="28.71"/>
				<text transform="matrix(1 0 0 1 -928.3286 698.9766)" style="fill:#7F8B8C; font-family:'Helvetica'; font-size:18px;">.col- lg-2   </text>
				<text transform="matrix(1 0 0 1 -736.7056 698.9766)" style="fill:#7F8B8C; font-family:'Helvetica'; font-size:18px;">.col- lg-2   </text>
				<text transform="matrix(1 0 0 1 -545.1626 698.9766)" style="fill:#7F8B8C; font-family:'Helvetica'; font-size:18px;">.col- lg-2   </text>
				<text transform="matrix(1 0 0 1 -358.8203 698.9766)" style="fill:#7F8B8C; font-family:'Helvetica'; font-size:18px;">.col- lg-2   </text>
				<text transform="matrix(1 0 0 1 -170.7402 698.9766)" style="fill:#7F8B8C; font-family:'Helvetica'; font-size:18px;">.col- lg-2   </text>
				<text transform="matrix(1 0 0 1 19.6108 698.9766)" style="fill:#7F8B8C; font-family:'Helvetica'; font-size:18px;">.col- lg-2   </text>
				<rect id="padding_52_" x="-984.5" y="707.02" class="st4" width="15" height="28.71"/>
				<rect id="padding_51_" x="-999.5" y="707.02" class="st4" width="15" height="28.71"/>
				<rect id="col_20_" x="-589.5" y="707.02" class="st3" width="160" height="28.71"/>
				<rect id="padding_44_" x="-604.5" y="707.02" class="st4" width="15" height="28.71"/>
				<rect id="padding_43_" x="-619.5" y="707.02" class="st4" width="15" height="28.71"/>
				<rect id="col_18_" x="-399.5" y="707.02" class="st3" width="160" height="28.71"/>
				<rect id="padding_40_" x="-414.5" y="707.02" class="st4" width="15" height="28.71"/>
				<rect id="padding_39_" x="-429.5" y="707.02" class="st4" width="15" height="28.71"/>
				<rect id="col_16_" x="-209.5" y="707.02" class="st3" width="160" height="28.71"/>
				<rect id="padding_36_" x="-224.5" y="707.02" class="st4" width="15" height="28.71"/>
				<rect id="padding_35_" x="-239.5" y="707.02" class="st4" width="15" height="28.71"/>
				<rect id="col_14_" x="-19.5" y="707.02" class="st3" width="160" height="28.71"/>
				<rect id="padding_32_" x="-34.5" y="707.02" class="st4" width="15" height="28.71"/>
				<rect id="padding_31_" x="-49.5" y="707.02" class="st4" width="15" height="28.71"/>
				<rect id="padding_28_" x="155.5" y="707.02" class="st4" width="15" height="28.71"/>
				<rect id="padding_27_" x="140.5" y="707.02" class="st4" width="15" height="28.71"/>
			</g>
			<g>
				<rect id="col_32_" x="-969.5" y="1434.2" class="st3" width="1015" height="28.71"/>
				<rect id="padding_84_" x="-984.5" y="1434.2" class="st4" width="15" height="28.71"/>
				<rect id="padding_83_" x="-999.5" y="1434.2" class="st4" width="15" height="28.71"/>
				<text transform="matrix(1 0 0 1 -509.499 1426.1584)" style="fill:#7F8B8C; font-family:'Helvetica'; font-size:18px;">.col- lg-11   </text>
				<rect id="padding_76_" x="-984.5" y="1434.2" class="st4" width="15" height="28.71"/>
				<rect id="padding_75_" x="-999.5" y="1434.2" class="st4" width="15" height="28.71"/>
				<rect id="padding_62_" x="60.5" y="1434.2" class="st4" width="15" height="28.71"/>
				<rect id="padding_61_" x="45.5" y="1434.2" class="st4" width="15" height="28.71"/>
			</g>
			<g>
				<rect id="padding_108_" x="-984.5" y="1515" class="st4" width="15" height="28.71"/>
				<rect id="padding_107_" x="-999.5" y="1515" class="st4" width="15" height="28.71"/>
				<text transform="matrix(1 0 0 1 -456.3286 1506.9563)" style="fill:#7F8B8C; font-family:'Helvetica'; font-size:18px;">.col- lg-12   </text>
				<rect id="padding_100_" x="-984.5" y="1515" class="st4" width="15" height="28.71"/>
				<rect id="padding_99_" x="-999.5" y="1515" class="st4" width="15" height="28.71"/>
				<rect id="col_34_" x="-969.5" y="1515" class="st3" width="1110" height="28.71"/>
				<rect id="padding_86_" x="155.5" y="1515" class="st4" width="15" height="28.71"/>
				<rect id="padding_85_" x="140.5" y="1515" class="st4" width="15" height="28.71"/>
			</g>
			<g>
				<rect x="-875.5" y="764.37" class="st5" width="79.02" height="24.11"/>
				<text transform="matrix(1 0 0 1 -875.5002 779.8223)" style="fill:#7F8B8C; font-family:'Helvetica'; font-size:18px;">.col- lg-3  </text>
				<rect x="-596.51" y="764.37" class="st5" width="79.02" height="24.11"/>
				<text transform="matrix(1 0 0 1 -596.5112 779.8223)" style="fill:#7F8B8C; font-family:'Helvetica'; font-size:18px;">.col- lg-3  </text>
				<rect x="-311.51" y="764.37" class="st5" width="79.02" height="24.11"/>
				<text transform="matrix(1 0 0 1 -311.5112 779.8223)" style="fill:#7F8B8C; font-family:'Helvetica'; font-size:18px;">.col- lg-3  </text>
				<rect x="-34.5" y="764.37" class="st5" width="79.02" height="24.11"/>
				<text transform="matrix(1 0 0 1 -34.499 779.8223)" style="fill:#7F8B8C; font-family:'Helvetica'; font-size:18px;">.col- lg-3  </text>
				<rect id="col_36_" x="-969.5" y="787.77" class="st3" width="254.94" height="28.71"/>
				<rect id="padding_78_" x="-984.5" y="787.77" class="st4" width="15" height="28.71"/>
				<rect id="padding_77_" x="-999.5" y="787.77" class="st4" width="15" height="28.71"/>
				<rect id="col_33_" x="-684.5" y="787.77" class="st3" width="255" height="28.71"/>
				<rect id="padding_72_" x="-699.5" y="787.77" class="st4" width="15" height="28.71"/>
				<rect id="padding_71_" x="-714.5" y="787.77" class="st4" width="15" height="28.71"/>
				<rect id="col_30_" x="-399.5" y="787.77" class="st3" width="255" height="28.71"/>
				<rect id="padding_66_" x="-414.5" y="787.77" class="st4" width="15" height="28.71"/>
				<rect id="padding_65_" x="-429.5" y="787.77" class="st4" width="15" height="28.71"/>
				<rect id="col_27_" x="-114.5" y="787.77" class="st3" width="255" height="28.71"/>
				<rect id="padding_60_" x="-129.5" y="787.77" class="st4" width="15" height="28.71"/>
				<rect id="padding_59_" x="-144.5" y="787.77" class="st4" width="15" height="28.71"/>
				<rect id="padding_54_" x="155.5" y="787.77" class="st4" width="15" height="28.71"/>
				<rect id="padding_53_" x="140.5" y="787.77" class="st4" width="15" height="28.71"/>
			</g>
			<g>
				<rect id="col_48_" x="-969.5" y="868.51" class="st3" width="350" height="28.71"/>
				<rect id="padding_104_" x="-984.5" y="868.51" class="st4" width="15" height="28.71"/>
				<rect id="padding_103_" x="-999.5" y="868.51" class="st4" width="15" height="28.71"/>
				<rect id="col_44_" x="-589.5" y="868.51" class="st3" width="350" height="28.71"/>
				<rect id="padding_96_" x="-604.5" y="868.51" class="st4" width="15" height="28.71"/>
				<rect id="padding_95_" x="-619.5" y="868.51" class="st4" width="15" height="28.71"/>
				<rect id="col_40_" x="-209.5" y="868.51" class="st3" width="350" height="28.71"/>
				<rect id="padding_88_" x="-224.5" y="868.51" class="st4" width="15" height="28.71"/>
				<rect id="padding_87_" x="-239.5" y="868.51" class="st4" width="15" height="28.71"/>
				<rect id="padding_80_" x="155.5" y="868.51" class="st4" width="15" height="28.71"/>
				<rect id="padding_79_" x="140.5" y="868.51" class="st4" width="15" height="28.71"/>
				<text transform="matrix(1 0 0 1 -833.989 860.6782)" style="fill:#7F8B8C; font-family:'Helvetica'; font-size:18px;">.col- lg-4   </text>
				<text transform="matrix(1 0 0 1 -452.1626 860.6782)" style="fill:#7F8B8C; font-family:'Helvetica'; font-size:18px;">.col- lg-4   </text>
				<text transform="matrix(1 0 0 1 -74.7402 860.6782)" style="fill:#7F8B8C; font-family:'Helvetica'; font-size:18px;">.col- lg-4   </text>
			</g>
			<g>
				<rect id="col_60_" x="-969.5" y="949.8" class="st3" width="445" height="28.71"/>
				<rect id="padding_130_" x="-984.5" y="949.8" class="st4" width="15" height="28.71"/>
				<rect id="padding_129_" x="-999.5" y="949.8" class="st4" width="15" height="28.71"/>
				<rect id="col_55_" x="-494.5" y="949.8" class="st3" width="635" height="28.71"/>
				<rect id="padding_120_" x="-509.5" y="949.8" class="st4" width="15" height="28.71"/>
				<rect id="padding_119_" x="-524.5" y="949.8" class="st4" width="15" height="28.71"/>
				<rect id="padding_106_" x="155.5" y="949.8" class="st4" width="15" height="28.71"/>
				<rect id="padding_105_" x="140.5" y="949.8" class="st4" width="15" height="28.71"/>
				<text transform="matrix(1 0 0 1 -779.4998 940.9763)" style="fill:#7F8B8C; font-family:'Helvetica'; font-size:18px;">.col- lg-5   </text>
				<text transform="matrix(1 0 0 1 -217 940.9763)" style="fill:#7F8B8C; font-family:'Helvetica'; font-size:18px;">.col- lg-7   </text>
			</g>
			<g>
				<rect id="padding_156_" x="-984.5" y="1032.6" class="st4" width="15" height="28.71"/>
				<rect id="padding_155_" x="-999.5" y="1032.6" class="st4" width="15" height="28.71"/>
				<rect id="col_67_" x="-969.5" y="1032.6" class="st3" width="540" height="28.71"/>
				<rect id="padding_144_" x="-414.5" y="1032.6" class="st4" width="15" height="28.71"/>
				<rect id="padding_143_" x="-429.5" y="1032.6" class="st4" width="15" height="28.71"/>
				<rect id="col_61_" x="-398.44" y="1032.6" class="st3" width="538.94" height="28.71"/>
				<rect id="padding_132_" x="155.5" y="1032.6" class="st4" width="15" height="28.71"/>
				<rect id="padding_131_" x="140.5" y="1032.6" class="st4" width="15" height="28.71"/>
				<text transform="matrix(1 0 0 1 -736.7056 1019.7744)" style="fill:#7F8B8C; font-family:'Helvetica'; font-size:18px;">.col- lg-6  </text>
				<text transform="matrix(1 0 0 1 -170.7402 1019.7744)" style="fill:#7F8B8C; font-family:'Helvetica'; font-size:18px;">.col- lg-6   </text>
			</g>
			<g>
				<rect id="padding_208_" x="-984.5" y="1192.7" class="st4" width="15" height="28.71"/>
				<rect id="padding_207_" x="-999.5" y="1192.7" class="st4" width="15" height="28.71"/>
				<rect id="col_89_" x="-969.5" y="1192.7" class="st3" width="730" height="28.71"/>
				<rect id="padding_192_" x="-224.5" y="1192.7" class="st4" width="15" height="28.71"/>
				<rect id="padding_191_" x="-239.5" y="1192.7" class="st4" width="15" height="28.71"/>
				<text transform="matrix(1 0 0 1 -644.3286 1182.8704)" style="fill:#7F8B8C; font-family:'Helvetica'; font-size:18px;">.col- lg-8   </text>
			</g>
			<g>
				<rect id="col_84_" x="-969.5" y="1111.27" class="st3" width="635" height="28.71"/>
				<rect id="padding_182_" x="-984.5" y="1111.27" class="st4" width="15" height="28.71"/>
				<rect id="padding_181_" x="-999.5" y="1111.27" class="st4" width="15" height="28.71"/>
				<rect id="padding_168_" x="-319.5" y="1111.27" class="st4" width="15" height="28.71"/>
				<rect id="padding_167_" x="-334.5" y="1111.27" class="st4" width="15" height="28.71"/>
				<text transform="matrix(1 0 0 1 -684.5652 1102.7041)" style="fill:#7F8B8C; font-family:'Helvetica'; font-size:18px;">.col- lg-7   </text>
			</g>
			<g>
				<rect id="padding_234_" x="-984.5" y="1275" class="st4" width="15" height="28.71"/>
				<rect id="padding_233_" x="-999.5" y="1275" class="st4" width="15" height="28.71"/>
				<rect id="col_100_" x="-971.64" y="1275" class="st3" width="827.14" height="28.71"/>
				<rect id="padding_216_" x="-129.5" y="1275" class="st4" width="15" height="28.71"/>
				<rect id="padding_215_" x="-144.5" y="1275" class="st4" width="15" height="28.71"/>
				<text transform="matrix(1 0 0 1 -589.4624 1262.168)" style="fill:#7F8B8C; font-family:'Helvetica'; font-size:18px;">.col- lg-9   </text>
			</g>
			<g>
				<rect id="padding_58_" x="-984.5" y="1354.14" class="st4" width="15" height="28.71"/>
				<rect id="padding_57_" x="-999.5" y="1354.14" class="st4" width="15" height="28.71"/>
				<rect id="padding_50_" x="-984.5" y="1354.14" class="st4" width="15" height="28.71"/>
				<rect id="padding_49_" x="-999.5" y="1354.14" class="st4" width="15" height="28.71"/>
				<rect id="col_15_" x="-969.5" y="1354.14" class="st3" width="920" height="28.71"/>
				<rect id="padding_34_" x="-34.5" y="1354.14" class="st4" width="15" height="28.71"/>
				<rect id="padding_33_" x="-49.5" y="1354.14" class="st4" width="15" height="28.71"/>
				<text transform="matrix(1 0 0 1 -558.0713 1344.6157)" style="fill:#7F8B8C; font-family:'Helvetica'; font-size:18px;">.col- lg-10   </text>
			</g>
		</g>
		<g id="Grid-1170">
			<g id="Container" class="st6">
				<g>
					<rect x="-999.5" y="579.91" class="st7" width="1170" height="992.86"/>
				</g>
			</g>
			<g id="Columns" class="st6">
				<g>
					<path class="st8" d="M-969.5,1572.77h65V579.91h-65V1572.77z M-874.5,1572.77h65V579.91h-65V1572.77z M-779.5,1572.77h65
						V579.91h-65V1572.77z M-684.5,1572.77h65V579.91h-65V1572.77z M-589.5,1572.77h65V579.91h-65V1572.77z M-494.5,1572.77h65
						V579.91h-65V1572.77z M-399.5,1572.77h65V579.91h-65V1572.77z M-304.5,1572.77h65V579.91h-65V1572.77z M-209.5,1572.77h65
						V579.91h-65V1572.77z M-114.5,1572.77h65V579.91h-65V1572.77z M-19.5,1572.77h65V579.91h-65V1572.77z M75.5,579.91v992.86h65
						V579.91H75.5z"/>
				</g>
			</g>
		</g>
		<line class="st9" x1="-493.72" y1="868.51" x2="-485.63" y2="868.51"/>
		<line class="st9" x1="-107.6" y1="868.51" x2="-99.51" y2="868.51"/>
		<line class="st9" x1="-311.51" y1="868.51" x2="-303.42" y2="868.51"/>
	</g>
</g>
</svg>
