<?xml version="1.0" encoding="utf-8"?>
<!-- Generator: Adobe Illustrator 22.1.0, SVG Export Plug-In . SVG Version: 6.00 Build 0)  -->
<svg version="1.1" id="Layer_1" xmlns="http://www.w3.org/2000/svg" xmlns:xlink="http://www.w3.org/1999/xlink" x="0px" y="0px"
	 viewBox="0 0 300 300" style="enable-background:new 0 0 300 300;" xml:space="preserve">
<style type="text/css">
	.st0{fill:#3F8EE8;}
	.st1{fill:#9CE874;}
	.st2{enable-background:new    ;}
	.st3{fill:#FFFFFF;}
</style>
<g>
	<g>
		<path class="st0" d="M88.57,115.01c1.27,1.47,2.43,3.08,3.45,4.83l22.92,43.31c5.31,9.11,14.32,14.59,23.99,14.59h24.29
			c10.45,0,20.08-6.41,25.13-16.73l17.16-39.04c1.26-2.58,2.81-4.92,4.59-6.97"/>
		<g>
			<path class="st1" d="M149.34,194.25h43.9c13.85,0,27.14-6.12,37.04-17.04c6.69-7.38,13.69-15.37,16.98-19.96
				c8.46-11.81,29.24-51,29.24-51l-28.8-0.5h-11.42c-10.45,0-20.08,6.41-25.13,16.73l-20.83,42.54
				c-5.05,10.32-14.68,16.73-25.13,16.73h-15.26L149.34,194.25z"/>
			<path class="st1" d="M150.66,194.25h-43.9c-13.85,0-27.14-6.12-37.04-17.04c-6.69-7.38-13.69-15.37-16.98-19.96
				c-8.46-11.81-29.24-51-29.24-51l28.8-0.5h11.42c10.45,0,20.08,6.41,25.13,16.73l20.83,42.54c5.05,10.32,14.68,16.73,25.13,16.73
				h15.26L150.66,194.25z"/>
		</g>
	</g>
	<g class="st2">
		<path class="st3" d="M150.05,145.59c0-0.78-0.02-1.32-0.05-1.61c-0.03-0.29-0.09-0.47-0.18-0.55s-0.26-0.11-0.5-0.11
			c-0.28,0-0.46,0.04-0.55,0.12c-0.09,0.08-0.15,0.27-0.17,0.56c-0.02,0.29-0.04,0.89-0.04,1.78v6.41h-4.63v-6.61
			c0-0.8-0.01-1.34-0.04-1.62c-0.02-0.28-0.08-0.46-0.17-0.54s-0.26-0.11-0.52-0.11c-0.28,0-0.46,0.04-0.55,0.12
			c-0.09,0.08-0.15,0.27-0.17,0.57s-0.04,0.89-0.04,1.77v6.41h-4.63v-12.43h4.49l0.1,1.39h0.24c0.57-1.06,1.54-1.58,2.93-1.58
			c0.81,0,1.44,0.13,1.88,0.38c0.44,0.25,0.75,0.65,0.93,1.21h0.24c0.6-1.06,1.58-1.58,2.95-1.58c0.86,0,1.52,0.17,1.96,0.5
			c0.45,0.33,0.75,0.82,0.91,1.46c0.16,0.64,0.24,1.51,0.24,2.6v8.07h-4.63V145.59z"/>
	</g>
	<g class="st2">
		<path class="st3" d="M157.55,144.11c-0.55-0.06-1.04-0.13-1.46-0.21v-2.08c0.99,0.1,1.83,0.14,2.52,0.14
			c0.35,0,0.59-0.01,0.73-0.04c0.14-0.03,0.23-0.1,0.28-0.21c0.05-0.11,0.08-0.3,0.08-0.56c0-0.29-0.02-0.5-0.07-0.63
			c-0.05-0.12-0.13-0.2-0.23-0.24c-0.11-0.04-0.3-0.06-0.56-0.06h-1.41v-2.17h1.41c0.27,0,0.45-0.02,0.55-0.06
			c0.1-0.04,0.17-0.11,0.2-0.22c0.03-0.11,0.04-0.3,0.04-0.56s-0.02-0.45-0.06-0.55c-0.04-0.1-0.14-0.17-0.28-0.2
			s-0.41-0.04-0.79-0.04c-0.74,0-1.53,0.05-2.36,0.16v-2.09c0.42-0.08,0.9-0.16,1.45-0.21c0.55-0.06,1.04-0.09,1.46-0.09
			c0.86,0,1.55,0.09,2.06,0.26s0.88,0.45,1.11,0.82c0.23,0.37,0.34,0.86,0.34,1.46c0,0.7-0.12,1.23-0.36,1.59
			c-0.24,0.36-0.62,0.61-1.14,0.74v0.06c0.38,0.1,0.68,0.23,0.9,0.39c0.22,0.17,0.39,0.41,0.51,0.72c0.12,0.31,0.18,0.73,0.18,1.25
			c0,0.63-0.11,1.15-0.32,1.54c-0.21,0.39-0.58,0.69-1.11,0.88c-0.53,0.19-1.25,0.29-2.18,0.29
			C158.6,144.19,158.1,144.16,157.55,144.11z"/>
	</g>
</g>
</svg>
